<?xml version="1.0" encoding="UTF-8" standalone="no"?>
<!-- Created with Inkscape (http://www.inkscape.org/) -->
<svg
   xmlns:dc="http://purl.org/dc/elements/1.1/"
   xmlns:cc="http://creativecommons.org/ns#"
   xmlns:rdf="http://www.w3.org/1999/02/22-rdf-syntax-ns#"
   xmlns:svg="http://www.w3.org/2000/svg"
   xmlns="http://www.w3.org/2000/svg"
   xmlns:sodipodi="http://sodipodi.sourceforge.net/DTD/sodipodi-0.dtd"
   xmlns:inkscape="http://www.inkscape.org/namespaces/inkscape"
   width="400"
   height="400"
   id="svg2"
   sodipodi:version="0.32"
   inkscape:version="0.46"
   version="1.0"
   sodipodi:docname="WalleyeSingingfish.svg"
   inkscape:output_extension="org.inkscape.output.svg.inkscape"
   inkscape:export-filename="C:\Documents and Settings\NDB\Desktop\Fonts\visible things\WalleyeSingingfish.png"
   inkscape:export-xdpi="90"
   inkscape:export-ydpi="90">
  <defs
     id="defs4">
    <inkscape:perspective
       sodipodi:type="inkscape:persp3d"
       inkscape:vp_x="0 : 526.18109 : 1"
       inkscape:vp_y="0 : 1000 : 0"
       inkscape:vp_z="744.09448 : 526.18109 : 1"
       inkscape:persp3d-origin="372.04724 : 350.78739 : 1"
       id="perspective10" />
    <inkscape:perspective
       id="perspective2390"
       inkscape:persp3d-origin="372.04724 : 350.78739 : 1"
       inkscape:vp_z="744.09448 : 526.18109 : 1"
       inkscape:vp_y="0 : 1000 : 0"
       inkscape:vp_x="0 : 526.18109 : 1"
       sodipodi:type="inkscape:persp3d" />
    <inkscape:perspective
       id="perspective2405"
       inkscape:persp3d-origin="372.04724 : 350.78739 : 1"
       inkscape:vp_z="744.09448 : 526.18109 : 1"
       inkscape:vp_y="0 : 1000 : 0"
       inkscape:vp_x="0 : 526.18109 : 1"
       sodipodi:type="inkscape:persp3d" />
    <inkscape:perspective
       id="perspective2426"
       inkscape:persp3d-origin="372.04724 : 350.78739 : 1"
       inkscape:vp_z="744.09448 : 526.18109 : 1"
       inkscape:vp_y="0 : 1000 : 0"
       inkscape:vp_x="0 : 526.18109 : 1"
       sodipodi:type="inkscape:persp3d" />
    <inkscape:perspective
       id="perspective3219"
       inkscape:persp3d-origin="372.04724 : 350.78739 : 1"
       inkscape:vp_z="744.09448 : 526.18109 : 1"
       inkscape:vp_y="0 : 1000 : 0"
       inkscape:vp_x="0 : 526.18109 : 1"
       sodipodi:type="inkscape:persp3d" />
    <inkscape:perspective
       id="perspective3232"
       inkscape:persp3d-origin="372.04724 : 350.78739 : 1"
       inkscape:vp_z="744.09448 : 526.18109 : 1"
       inkscape:vp_y="0 : 1000 : 0"
       inkscape:vp_x="0 : 526.18109 : 1"
       sodipodi:type="inkscape:persp3d" />
    <inkscape:perspective
       id="perspective3245"
       inkscape:persp3d-origin="372.04724 : 350.78739 : 1"
       inkscape:vp_z="744.09448 : 526.18109 : 1"
       inkscape:vp_y="0 : 1000 : 0"
       inkscape:vp_x="0 : 526.18109 : 1"
       sodipodi:type="inkscape:persp3d" />
    <inkscape:perspective
       id="perspective3258"
       inkscape:persp3d-origin="372.04724 : 350.78739 : 1"
       inkscape:vp_z="744.09448 : 526.18109 : 1"
       inkscape:vp_y="0 : 1000 : 0"
       inkscape:vp_x="0 : 526.18109 : 1"
       sodipodi:type="inkscape:persp3d" />
    <inkscape:perspective
       id="perspective3271"
       inkscape:persp3d-origin="372.04724 : 350.78739 : 1"
       inkscape:vp_z="744.09448 : 526.18109 : 1"
       inkscape:vp_y="0 : 1000 : 0"
       inkscape:vp_x="0 : 526.18109 : 1"
       sodipodi:type="inkscape:persp3d" />
    <inkscape:perspective
       id="perspective3284"
       inkscape:persp3d-origin="372.04724 : 350.78739 : 1"
       inkscape:vp_z="744.09448 : 526.18109 : 1"
       inkscape:vp_y="0 : 1000 : 0"
       inkscape:vp_x="0 : 526.18109 : 1"
       sodipodi:type="inkscape:persp3d" />
    <inkscape:perspective
       id="perspective3421"
       inkscape:persp3d-origin="372.04724 : 350.78739 : 1"
       inkscape:vp_z="744.09448 : 526.18109 : 1"
       inkscape:vp_y="0 : 1000 : 0"
       inkscape:vp_x="0 : 526.18109 : 1"
       sodipodi:type="inkscape:persp3d" />
    <inkscape:perspective
       id="perspective3438"
       inkscape:persp3d-origin="372.04724 : 350.78739 : 1"
       inkscape:vp_z="744.09448 : 526.18109 : 1"
       inkscape:vp_y="0 : 1000 : 0"
       inkscape:vp_x="0 : 526.18109 : 1"
       sodipodi:type="inkscape:persp3d" />
  </defs>
  <sodipodi:namedview
     id="base"
     pagecolor="#ffffff"
     bordercolor="#666666"
     borderopacity="1.0"
     gridtolerance="10000"
     guidetolerance="10"
     objecttolerance="10"
     inkscape:pageopacity="0.0"
     inkscape:pageshadow="2"
     inkscape:zoom="0.24748737"
     inkscape:cx="-283.8759"
     inkscape:cy="656.42049"
     inkscape:document-units="px"
     inkscape:current-layer="layer1"
     showgrid="false"
     inkscape:window-width="1024"
     inkscape:window-height="742"
     inkscape:window-x="0"
     inkscape:window-y="0" />
  <metadata
     id="metadata7">
    <rdf:RDF>
      <cc:Work
         rdf:about="">
        <dc:format>image/svg+xml</dc:format>
        <dc:type
           rdf:resource="http://purl.org/dc/dcmitype/StillImage" />
      </cc:Work>
    </rdf:RDF>
  </metadata>
  <g
     inkscape:label="Layer 1"
     inkscape:groupmode="layer"
     id="layer1">
    <rect
       style="opacity:1;fill:#dceccd;fill-opacity:1;stroke:#19190d;stroke-width:0;stroke-miterlimit:4;stroke-dasharray:none;stroke-opacity:1"
       id="rect3444"
       width="400"
       height="400"
       x="0"
       y="-2.3404022e-14" />
    <path
       style="fill:#737373;fill-opacity:1;stroke:#191919;stroke-width:0;stroke-miterlimit:4;stroke-dasharray:none;stroke-opacity:1"
       d="M 283.61559,360.10345 C 281.67104,359.6338 276.4435,358.47345 271.99883,357.5249 C 260.53879,355.07917 256.31419,353.00027 252.95777,348.15498 C 250.96643,345.28034 245.82887,341.21835 236.29025,334.97691 C 228.70634,330.0145 221.13765,325.2696 219.4709,324.43267 C 215.21572,322.29599 207.08099,320.89483 194.72216,320.16982 C 177.99236,319.18841 167.32748,317.67083 162.66443,315.60815 C 160.29516,314.56011 158.35667,313.30797 158.35667,312.82564 C 158.35667,311.47719 163.33263,308.10019 171.05396,304.20844 C 183.12943,298.12209 183.11456,298.56122 171.6616,286.24538 C 158.69802,272.30508 154.59941,266.37892 141.66852,242.87834 C 124.96284,212.51743 124.83888,212.33563 117.69627,207.71946 C 114.22484,205.47592 107.74801,201.8751 103.30334,199.71763 C 84.689325,190.68225 74.513995,183.06683 74.513995,178.17108 C 74.513995,177.52869 77.626475,173.75592 81.430615,169.78715 C 85.234735,165.81838 90.218245,159.99954 92.505034,156.85638 C 95.961694,152.10531 97.539944,150.85025 101.86377,149.41409 C 107.04832,147.69208 107.06284,147.67515 106.47326,144.04203 C 104.76812,133.5345 92.805574,117.72283 82.702625,112.62288 C 79.573205,111.04315 71.081085,107.88054 63.831295,105.59487 C 46.135995,100.01601 25.016525,89.283168 25.016525,85.869327 C 25.016525,81.746207 42.869025,76.322385 56.701605,76.242987 C 63.437455,76.204319 63.616195,76.137477 62.885115,73.930324 C 59.728105,64.399257 62.152895,54.297087 69.403095,46.775117 C 74.870145,41.103157 77.943625,40.512337 81.819585,44.388297 C 84.986535,47.555237 104.04304,74.84336 107.88083,81.706882 C 109.45015,84.51347 111.70575,89.991749 112.89325,93.880837 C 116.84072,106.80877 118.04168,109.38985 123.24624,116.1316 C 127.20407,121.2584 130.20199,123.85595 136.06263,127.23637 C 140.27019,129.66328 146.88991,134.18076 150.77315,137.27521 C 154.65638,140.36967 161.37368,144.74327 165.70047,146.9943 C 171.69808,150.1146 174.20552,152.09146 176.25306,155.31393 C 180.61798,162.18355 184.76287,172.98288 187.25178,183.9706 C 188.65144,190.14966 191.17609,197.42854 193.57328,202.19631 C 196.90054,208.81392 199.05031,211.46755 206.49736,218.14955 C 225.02191,234.77107 239.01875,247.68288 249.77548,258.07281 C 255.8869,263.97586 262.93271,270.18611 265.43284,271.87339 C 273.03134,277.00147 289.62591,284.85291 299.86378,288.16379 C 319.1078,294.38722 336.07604,301.63944 347.90691,308.69736 C 354.49329,312.6266 361.13216,316.28822 362.66001,316.83433 C 365.57485,317.87622 365.88276,318.40769 364.66485,320.29475 C 363.81052,321.6185 355.30781,327.03332 350.68466,329.19783 C 347.70367,330.5935 341.17682,337.08777 341.20974,338.62545 C 341.23952,340.01669 342.73972,341.49321 346.35259,343.68716 C 351.49798,346.81176 359.58298,355.71705 359.17722,357.81297 C 358.87976,359.34955 357.26228,359.56002 345.21928,359.62918 C 337.72748,359.6722 321.59732,359.98863 309.37448,360.33237 C 297.15163,360.67612 285.56013,360.5731 283.61559,360.10345 z"
       id="path2434" />
    <path
       style="fill:#1a1a1a"
       d="M 343.44825,267.46194 C 343.44825,266.89662 345.2461,262.52868 347.44345,257.75542 C 349.92085,252.37381 351.55178,247.18029 351.73649,244.08482 L 352.03434,239.0929 L 348.49889,239.46769 C 341.67159,240.19148 328.4062,240.21868 257.08241,239.6552 C 238.74861,239.51036 211.92975,239.55254 197.48493,239.74894 C 148.0446,240.42113 40.386722,239.31633 32.834254,238.05926 C 25.204719,236.78937 5.5593782,232.12295 2.7829806,230.92111 C 1.2551637,230.25973 0.0051317814,229.01694 0.0051317814,228.15934 C 0.0051317814,226.94903 1.8742452,227.30759 8.356838,229.76145 C 12.950276,231.50021 18.973157,233.21209 21.741019,233.56563 C 24.508879,233.91917 28.591722,234.75946 30.813999,235.43296 C 33.684915,236.30305 80.316276,236.64072 191.90807,236.59953 C 278.28755,236.56765 350.47326,236.81095 352.32078,237.1402 L 355.6799,237.73883 L 355.00339,243.68512 C 354.25551,250.2587 355.23965,251.26588 357.83283,246.58078 C 362.52095,238.11073 363.95662,237.01797 370.04118,237.2883 C 378.60608,237.66884 391.49369,235.39633 397.60606,232.42771 C 401.56879,230.50312 403.04575,230.18325 403.04575,231.24962 C 403.04575,232.08234 400.04655,233.77251 396.08921,235.16991 C 388.59053,237.81783 385.20282,238.45243 374.25713,239.25966 C 367.06326,239.7902 361.63054,241.4129 361.63054,243.0311 C 361.63054,243.52376 359.95618,245.83437 357.90971,248.16578 C 355.86328,250.49718 354.0449,253.2998 353.86891,254.39382 C 353.45975,256.93717 345.72107,268.48979 344.42653,268.48979 C 343.88848,268.48979 343.44825,268.02726 343.44825,267.46194 z"
       id="path2396" />
    <path
       style="fill:#000000"
       d=""
       id="path2415" />
    <path
       style="fill:#252525;fill-opacity:1;stroke:#191919;stroke-width:0;stroke-miterlimit:4;stroke-dasharray:none;stroke-opacity:1;opacity:0"
       d="M 113.88667,239.7076 C 101.53253,239.60269 73.126208,239.25992 67.861596,239.15224 C 66.16012,239.11744 64.824825,239.11284 64.894273,239.14203 C 64.963721,239.17122 65.179124,239.23015 65.372946,239.27298 C 66.140775,239.44267 65.502009,239.59591 64.034505,239.59407 C 62.426291,239.59205 61.733367,239.43336 62.558295,239.256 L 63.000237,239.16099 L 62.368891,239.07388 C 62.021651,239.02597 60.757382,238.9818 59.559405,238.97572 L 57.381263,238.96465 L 57.381263,237.61953 L 57.381263,236.2744 L 65.052109,236.36391 C 69.271074,236.41314 94.883177,236.50487 121.96789,236.56775 C 149.05261,236.63063 171.22703,236.68427 171.2444,236.68694 C 171.26176,236.68962 171.27596,237.40207 171.27596,238.27017 L 171.27596,239.84854 L 148.45283,239.82793 C 135.90011,239.8166 120.34533,239.76245 113.88667,239.7076 z"
       id="path2438" />
    <text
       xml:space="preserve"
       style="font-size:128.99992371px;font-style:normal;font-variant:normal;font-weight:normal;font-stretch:normal;fill:#031c1e;fill-opacity:1;stroke:none;stroke-width:1px;stroke-linecap:butt;stroke-linejoin:miter;stroke-opacity:1;font-family:Solveig Display;-inkscape-font-specification:Solveig Display"
       x="16.683069"
       y="106.11494"
       id="text3290"><tspan
         sodipodi:role="line"
         id="tspan3292"
         x="16.683069"
         y="106.11494"
         style="font-style:normal;font-variant:normal;font-weight:normal;font-stretch:normal;fill:#031c1e;fill-opacity:1;font-family:Walleye;-inkscape-font-specification:Walleye"
         dx="0 -6.9107099">Wa</tspan></text>
    <text
       xml:space="preserve"
       style="font-size:128.99992371px;font-style:normal;font-variant:normal;font-weight:normal;font-stretch:normal;fill:#080328;fill-opacity:1;stroke:none;stroke-width:1px;stroke-linecap:butt;stroke-linejoin:miter;stroke-opacity:1;font-family:Solveig Display;-inkscape-font-specification:Solveig Display"
       x="204.32207"
       y="104.21625"
       id="text3294"><tspan
         sodipodi:role="line"
         id="tspan3296"
         x="204.32207"
         y="104.21625"
         style="font-style:italic;font-variant:normal;font-weight:normal;font-stretch:normal;fill:#080328;fill-opacity:1;font-family:Walleye;-inkscape-font-specification:Walleye Italic"
         dx="0 -2.30357">Wa</tspan></text>
    <text
       xml:space="preserve"
       style="font-size:128.99992371px;font-style:normal;font-variant:normal;font-weight:normal;font-stretch:normal;fill:#1c0217;fill-opacity:1;stroke:none;stroke-width:1px;stroke-linecap:butt;stroke-linejoin:miter;stroke-opacity:1;font-family:Solveig Display;-inkscape-font-specification:Solveig Display"
       x="17.589249"
       y="217.16606"
       id="text3298"><tspan
         sodipodi:role="line"
         id="tspan3300"
         x="17.589249"
         y="217.16606"
         style="font-style:normal;font-variant:normal;font-weight:bold;font-stretch:normal;fill:#1c0217;fill-opacity:1;font-family:Walleye;-inkscape-font-specification:Walleye Bold"
         dx="0 -9.5889149">Wa</tspan></text>
    <text
       xml:space="preserve"
       style="font-size:128.99992371px;font-style:normal;font-variant:normal;font-weight:normal;font-stretch:normal;fill:#251603;fill-opacity:1;stroke:none;stroke-width:1px;stroke-linecap:butt;stroke-linejoin:miter;stroke-opacity:1;font-family:Solveig Display;-inkscape-font-specification:Solveig Display"
       x="200.02391"
       y="219.48804"
       id="text3302"><tspan
         sodipodi:role="line"
         id="tspan3304"
         x="200.02391"
         y="219.48804"
         style="font-style:italic;font-variant:normal;font-weight:bold;font-stretch:normal;fill:#251603;fill-opacity:1;font-family:Walleye;-inkscape-font-specification:Walleye Bold Italic"
         dx="0 -2.30357">Wa</tspan></text>
    <rect
       style="opacity:0;fill:#dceccd;fill-opacity:1;stroke:#191919;stroke-width:0;stroke-miterlimit:4;stroke-dasharray:none;stroke-opacity:1"
       id="rect3427"
       width="435.37573"
       height="420.22345"
       x="-8.0812206"
       y="-5.0711708" />
    <text
       xml:space="preserve"
       style="font-size:69.17321777px;font-style:normal;font-variant:normal;font-weight:normal;font-stretch:normal;fill:#000000;fill-opacity:1;stroke:none;stroke-width:1px;stroke-linecap:butt;stroke-linejoin:miter;stroke-opacity:1;font-family:Solveig Display;-inkscape-font-specification:Solveig Display"
       x="4.6998849"
       y="375.44763"
       id="text2404"><tspan
         sodipodi:role="line"
         id="tspan2406"
         x="4.6998849"
         y="375.44763"
         style="font-style:normal;font-variant:normal;font-weight:normal;font-stretch:normal;fill:#5f5e18;fill-opacity:1;font-family:Walleye;-inkscape-font-specification:Walleye"
         dx="0 -6.9875503">Walleye</tspan></text>
  </g>
</svg>
